<?xml version="1.0" encoding="UTF-8"?>
<svg id="_レイヤー_2" data-name="レイヤー 2" xmlns="http://www.w3.org/2000/svg" viewBox="0 0 575.2 567.5">
  <defs>
    <style>
      .cls-1 {
        fill: #f4a6ae;
      }

      .cls-2 {
        fill: #395461;
      }

      .cls-3 {
        fill: #61a5a6;
      }

      .cls-4 {
        fill: #2c454d;
      }

      .cls-5 {
        fill: #fff;
      }
    </style>
  </defs>
  <g id="_レイヤー_1-2">
    <g>
      <path class="cls-5" d="M296.88,566.75c127.05-2.07,243.1-93.13,271.13-217.48C616.54,134.04,411.1-53.52,201.23,13.98-5.3,80.4-71.81,342.69,91.74,491.77c43.5,39.66,111.97,70.41,170.99,74.26,5.63.37,11.38-.73,16.91.71.67-.53-6.35-6.8-7.15-7.47-16.35-13.79-30.29-12.42-50.01-17.49C41.57,495.32-43.79,291.68,65.27,134.52,162.87-6.12,363.22-23.15,482.52,100.99c148.43,154.46,67.2,397.93-138.38,443.65-16.19,3.6-27.61,2.21-40.54,14.21-2.15,2-4.37,5.75-6.72,7.9ZM304.01,283.25c-3.69.37-7.87-.27-11.62,0,.35,1.22,2.98,1.85,4.11,2.26,4.28,1.57,8.25,2.14,12.56,3.2.76.19,2.25.22,2.08,1.29h-10.88c-1.46,0-8.66-2.28-10.52-2.98-6-2.26-12.26-6.57-15.74-12.02l-1.11.37c9.94,27.79,42.7,31.91,64.28,14.71.66-.3,1.11.03,1.69.28,1.92.84,12.11,9.29,14.29,11.25,28.5,25.63,38.02,62.93,25.48,99.38-13.25-5.68-30.6-11.03-42.74-.37,5.75.48,11.52.62,17.08,2.41,8.34,2.68,15.64,10.53,25.66,10.33-7.64,4.75-16.61,6.17-25.49,6.39l6.4.72,2.6,1.52c-24.24,8.62-45.16-3.1-65.19-15.43-28.2-17.36-68.84-48.04-80.87-79.63-14.49-38.06-12.4-100.87,20.42-129.2,6.89-5.95,15.31-10.12,22.5-15.75,16.46-12.9,30.28-31.08,32.64-52.48-4.03,4.59-8.35,8.92-13.14,12.73-33.05,26.31-81.61,13.91-104.73,56.52-13.68,25.21-3.87,41.42-5.84,66.16-1.5,18.9-19.43,32.54-37.53,33.36.31,1.5,1.54,1.27,2.63,1.48,24.02,4.66,45.41-9.76,50.72-33.27,3.07-13.6,1.12-27.29,4.02-40.98,3.46-16.33,13.07-30.71,27.45-39.3l38.19-19.18c-12.05,14.75-31.3,21.83-43.48,36.39-23.48,28.08-23.55,88.22-13.9,121.85,4.12,14.37,11.21,26.9,18.98,39.51-17.2,23.62-31.43,51.29-27.52,81.53,2.51,19.41,13.72,36.77,27.65,49.97-16.53-37.5-11.8-82.19,10.52-116.24l1.48.36c-10.56,19.97-16.83,42.09-15.74,64.88l1.71-12.9c3.12-16.93,8.54-33.49,16.68-48.62,1.81-.31,15.96,11.43,18.87,13.39,11.03,7.41,24.27,14.49,36.48,19.77,17.46,7.55,36.85,14.23,56,14.88l-29.99,13.12c32.22,3.01,64.09-3.26,79.78-34.22,12.84-25.34,13.02-56,1.86-81.93-9.37-21.75-26.47-38.73-46.06-51.49,2.85-9.52,4.2-18.66.56-28.26-10.58-27.91-44.2-25.18-56.71-45.29-5.33-8.57-6.16-20.4-.81-29.17,6.75,6.14,21.09,15.53,29.37,7.23,1.61-1.61,2.25-5.25,3.27-6.11,1.32-1.11,4.54-.92,6.78-2.97,1.76-1.61,3.49-6.83,3.83-7.04,2.09-1.3,10.11,2.22,11.13-3.53.5-2.83-1.15-7.39-.75-11.22.96-9.09,9.17-9.21,14.66-14.58,13.87-13.59,14.11-39.15,7.45-56.27-20.45-52.62-100.08-59.11-126.14-8.42-4.46,8.67-6.39,18.97-14.11,25.64-20.93,18.07-53.46-6.29-31.86-28.47-20.71,6.32-21.43,33.3-5.63,45.74,23.51,18.5,60.98,2.91,87.37.37-9.83,6.02-20.68,10.77-32.09,12.91-20.83,3.9-41.44-.64-62.42,5.08-41.65,11.36-57.76,54.46-44.06,93.58,3.87,11.06,14.52,25.7,10.86,37.46-2.65,8.5-13.1,12.7-20.75,7.68-1.46-.96-3.01-4.12-4.53-2.97,5.79,12.5,24.55,18.31,33.61,5.87,8.25-11.34,1.42-29.61.85-42.58-1.33-30.38,16.4-54.14,42.15-68.17,31.13-16.97,71.47-14.43,96.43-43.13,20.71,3.88,44.13,3.51,59.45-12.86-.64,6.94-.42,14.03-4.09,20.27-4.87,8.28-13.53,8.09-14.64,19.11-.38,3.79.36,7.72-.11,11.51l-8.14,2.38c-.38.55,1.49,4.33-.51,5.26-3.65.59-6.11-1.07-9.25-2.28,1.59,2.72,5.56,3.63,5.25,7.49l-7.49-.75c.95,12.56-12.83,2.08-17.16-2-4.01-3.77-6.46-8.73-9.83-13-3.27,8.34-9.5,15.71-11.66,24.73-4.68,19.59,5.84,34.88,20.73,46.07,13.44,10.09,38.55,17.12,34.09,38.75-2.36,11.46-17.55,16.92-27.79,17.96ZM113.88,152.38c.67-6.63-.5-14.24,0-21l-1.55-.83c-21.4,7.2-39.51,27.3-41.18,50.34-.61,8.45,1.26,16.92,2.99,25.11.55.51,4.63-2.54,5.48-3.14,17.18-12,32.04-28.61,34.26-50.49ZM461.88,130.25v19.88c0,19.73,18.3,41.8,33.8,52.45l6.7,4.17c1.78-12.11,4.36-22.55,1.41-34.77-4.84-20.08-22.36-36.11-41.9-41.72ZM321.62,132.51l-1.5.38c.66,6.14,4.88,10.49,11.26,7.86.24-1.28-.28-1.56-1.31-2.06-3.04-1.48-7.45-1.57-8.45-6.18ZM59.89,261.5c1.16-.13,1.16-1.11,1.42-1.94,1.68-5.35,3.69-16.07,4.47-21.78,2.98-21.81-.13-45.01-12.64-63.27-4.22,8.56-8.4,16.68-10.16,26.22-3.46,18.76-.06,34.81,10.13,50.67,2.21,3.44,5.7,6.29,6.78,10.1ZM516.62,261.5c4.35-7.56,9.88-14.3,13.13-22.51,8.68-21.97,4.54-44.73-7.49-64.48-3.27,7.63-7.64,15.02-9.91,23.09-5.85,20.87-2.01,42.1,2.79,62.79.27,1.15-.51,1.31,1.47,1.11ZM69.63,249.88c-.49,4.87.36,10.42,0,15.38,10.25-8.14,21.57-14.15,29.98-24.4,8.32-10.13,11.31-21.17,14.28-33.72-13.17,1.3-26.62,6.97-34.38,18.12-4.07,5.84-9.17,17.6-9.88,24.62ZM462.64,206.76c1.83,15.99,9.16,31.44,21.39,41.97,6.64,5.72,15.04,10,21.73,15.76,1.58,0,1.24-7.84,1.16-9.39-1.52-26.62-17.84-44.8-44.28-48.34ZM320.13,395.75c-17.73-28.75-51.07-48.74-62.26-81.36-9.72-28.31-4.63-66.12-1.71-95.49.08-.82.89-2.55-.52-2.4-15.81,32.56-29.02,77.27-11.54,111.65,9.55,18.78,48.42,49.39,66.49,61.76,1.17.8,9,6.32,9.54,5.83ZM54.63,288.88v-15.75c0-1.21-1.74-5.93-2.36-7.39-2.5-5.94-7.24-11.69-9.65-17.73-2.31,2.14-2.82,7.67-3.02,10.84-.9,13.83,3.85,21.57,13.53,30.79l1.5-.76ZM521.89,289.25c11.74-10.52,18.57-25.98,11.61-41.25-7.99,13.19-15.83,24.86-11.61,41.25ZM66.63,320c1.3.34,1.5-.54,2.25-1.12,2.69-2.07,7.82-7.44,10.13-10.12,11.18-12.96,17.15-28.96,19.86-45.76-24.38,3.22-37.8,18.79-35.16,43.8.45,4.23,2.73,8.86,2.93,13.2ZM509.87,320c10.24-26.51-1.33-55.63-32.24-56.24,3.12,17.44,10.31,34.03,22.11,47.26,1.96,2.2,5.66,6.16,7.88,7.87.75.58.95,1.45,2.25,1.12ZM67.37,368.75c-.95-22.47-5.5-46.15-19.18-64.43-3.99-5.34-13.21-16.04-18.31-19.94-.75-.58-.95-1.46-2.25-1.12-4.88,26.79.44,53.57,21.35,72.02,5.72,5.04,12.68,8.44,18.39,13.48ZM547.37,284.01l-5.61,4.5c-8.06,9.17-16.59,17.9-21.91,29.09-7.61,16-9.35,32.94-10.71,50.4l14.19-9.43c22.81-17.04,30.92-47.39,24.05-74.56ZM94.38,310.26c-1.03-1.26-10.36,8.28-11.23,9.39-10.61,13.6-11.33,32.35-6.76,48.36l4.48-4.14c13.95-16.39,17.36-32.29,13.51-53.6ZM500.12,368.01c5.4-21.38,2.28-44.48-16.87-57.74-.95-.02-1.66,4.69-1.78,5.7-2.69,22.15,2.51,34.95,16.94,51.07.44.49-.05,1.44,1.71.96ZM98.87,353.01c-1.79-.42-1.21.33-1.66.98-4.7,6.78-9.67,13.32-10.36,21.87-.96,12.09,3.12,23.02,10.15,32.64,9.74-17.44,10.39-37.41,1.86-55.48ZM480.62,407.75c5.73-10.96,11.07-19.56,9.75-32.62-.63-6.26-6.12-16.52-10.5-21-.71-.73-.99-1.41-2.23-1.14-4.7,11.82-6.47,22.76-4.32,35.43.26,1.51,5.5,20.69,7.3,19.32ZM88.37,411.5c-3.37-9.53-6.46-20.65-13.11-28.51-6.36-7.51-15.44-10.17-24.38-13.49,4.63,20.01,19.5,33.55,37.49,42ZM525.63,369.51c-.68-.67-15.74,6.44-17.5,7.62-11.01,7.37-15.28,21.9-20,33.62,18.46-6.63,32.71-22.17,37.5-41.24ZM448.39,444.5c18.11-11.44,24.56-31.88,15.73-51.75-15.71,12.38-18.53,32.93-15.73,51.75ZM128.12,444.5c.7-13.82,1.72-26.17-5.11-38.75-1-1.84-8.71-13.63-10.62-12.24-8.84,19.55-2.6,40.09,15.73,51ZM120.63,451.25c1.44-1.32-11.24-14.01-12.74-15.38-13.28-12.2-30.2-19.06-48.01-21.36,4.66,14.17,15.78,31.8,30.91,36.2,9.67,2.81,19.94.63,29.83.54ZM515.88,414.51c-25.6,3.05-46.14,16.52-61.5,36.74,13.75.49,25.24,3.62,37.73-3.89,11.05-6.65,20.03-20.68,23.77-32.85ZM160.38,467.76c4.35-19.08-4.65-35.81-21.74-44.25-3.55,17.42,4.26,37.85,21.74,44.25ZM437.88,423.5c-17.34,8.19-26.86,24.98-22.5,44.25,8.9-3.16,16.33-10.77,19.86-19.51.49-1.21,2.64-7.17,2.64-7.86v-16.88ZM291.62,533.01c2.26-9.29,7.5-17.66,10.3-26.84,7.3-23.89,4.23-49.66-11.78-69.16-3.05,6.66-7.49,12.7-9.97,19.66-9.29,26.08-.96,51.25,9.89,75.29.4.88-.35,1.35,1.56,1.05ZM149.87,470.77c-15.47-10.96-32.7-14.36-50.99-8.26-.93,1.24,6.12,5.92,7.25,6.61,12.19,7.38,29.62,9.17,42.8,3.31,1.02-.45,1.18-.09.94-1.66ZM478.38,462.51c-17.14-5.4-32.62-3.8-47.64,5.97-1.54,1-3.71,2.37-4.85,3.76,17.26,6.25,37.06,4.63,51.25-7.61.77-.67,1.57-.74,1.24-2.12ZM290.89,543.5c-10.49-19.72-18.91-40.85-32.28-58.85-8.81-9.54-20.64-15.46-32.98-19.14,1.28,3.64,1.51,7.55,2.62,11.25,8.49,28.22,35.62,36.05,52.84,56.84,3.64,4.39,6.66,9.44,9.42,14.39,5.32-9.82,12.76-18.05,20.99-25.52,11.45-10.39,27.46-18.54,35.49-31.99,4.36-7.29,6.62-15.6,8.4-23.84l-1.46-.75c-5.14,2.63-11.24,4.27-16.3,6.98-12.47,6.68-19.26,16.74-25.86,28.89l-20.86,41.75ZM268.12,533.27c-26.52-27.24-69.84-33.97-103.08-50.3-13.91-4.41-27.49-1.86-40.66,3.55,15.42,15.06,36.82,14.63,56.99,12.74l-3.74-4.12c-.12-.57.7-.46,1.1-.36,9.43,2.44,28,12.61,37.16,17.6,25.89,14.1,51.41,30.72,68.61,55.14-.1-13.27-7.42-25.02-16.39-34.23ZM454.38,485.76c-9.2-2.56-17.62-5.45-27.41-5.29-16.43.27-57.87,18.7-74.11,26.39-25.31,11.99-49.43,28.96-58.22,56.89,13.95-19.08,34.15-32.41,54.24-44.38,16.09-9.59,32.84-18.69,50.37-25.38l-5.62,5.25c7.94.09,16.51,1.94,24.41,1.54,12.91-.66,24.93-6.11,35.36-13.36.65-.45,1.39.13.98-1.66ZM219.38,524.25c-12.2-13.71-31.34-17.87-48.91-16.03-1.14.12-1.86.08-2.57,1.16,13.32,15.21,33.22,17.74,52.48,16.87.1-.08-.72-1.68-1-2ZM357.63,526.25h17.62c10.94,0,27.34-9,35.26-16.5l-4.6-1.41c-17.94-2.8-36.94,3.55-48.28,17.91Z"/>
      <path class="cls-4" d="M304.01,283.25c10.25-1.03,25.43-6.5,27.79-17.96,4.46-21.63-20.65-28.66-34.09-38.75-14.9-11.19-25.41-26.48-20.73-46.07,2.15-9.01,8.39-16.38,11.66-24.73,3.37,4.27,5.82,9.22,9.83,13,4.33,4.08,18.11,14.56,17.16,2l7.49.75c.32-3.86-3.65-4.77-5.25-7.49,3.14,1.21,5.6,2.87,9.25,2.28,2-.93.13-4.71.51-5.26l8.14-2.38c.48-3.79-.27-7.73.11-11.51,1.11-11.02,9.77-10.83,14.64-19.11,3.67-6.24,3.46-13.33,4.09-20.27-15.32,16.37-38.74,16.74-59.45,12.86-24.96,28.7-65.3,26.17-96.43,43.13-25.75,14.04-43.48,37.8-42.15,68.17.57,12.96,7.4,31.24-.85,42.58-9.06,12.44-27.81,6.64-33.61-5.87,1.53-1.16,3.07,2.01,4.53,2.97,7.65,5.02,18.1.82,20.75-7.68,3.66-11.76-6.99-26.4-10.86-37.46-13.69-39.12,2.41-82.22,44.06-93.58,20.98-5.72,41.58-1.19,62.42-5.08,11.41-2.13,22.26-6.89,32.09-12.91-26.39,2.54-63.86,18.13-87.37-.37-15.81-12.44-15.08-39.42,5.63-45.74-21.6,22.18,10.93,46.55,31.86,28.47,7.72-6.67,9.65-16.97,14.11-25.64,26.06-50.69,105.7-44.2,126.14,8.42,6.65,17.12,6.41,42.68-7.45,56.27-5.49,5.38-13.7,5.5-14.66,14.58-.4,3.83,1.25,8.39.75,11.22-1.02,5.75-9.04,2.23-11.13,3.53-.34.21-2.08,5.43-3.83,7.04-2.24,2.05-5.46,1.86-6.78,2.97-1.02.86-1.66,4.49-3.27,6.11-8.28,8.3-22.62-1.09-29.37-7.23-5.35,8.77-4.51,20.6.81,29.17,12.5,20.11,46.12,17.39,56.71,45.29,3.64,9.6,2.29,18.74-.56,28.26,19.6,12.75,36.7,29.73,46.06,51.49,11.16,25.93,10.98,56.59-1.86,81.93-15.69,30.96-47.56,37.23-79.78,34.22l29.99-13.12c-19.15-.65-38.54-7.32-56-14.88-12.21-5.28-25.45-12.36-36.48-19.77-2.91-1.95-17.06-13.69-18.87-13.39-8.14,15.13-13.56,31.69-16.68,48.62l-1.71,12.9c-1.09-22.79,5.18-44.9,15.74-64.88l-1.48-.36c-22.32,34.05-27.05,78.74-10.52,116.24-13.93-13.19-25.14-30.56-27.65-49.97-3.92-30.24,10.32-57.91,27.52-81.53-7.78-12.61-14.86-25.14-18.98-39.51-9.65-33.63-9.58-93.77,13.9-121.85,12.18-14.56,31.43-21.64,43.48-36.39l-38.19,19.18c-14.38,8.59-23.99,22.97-27.45,39.3-2.9,13.69-.95,27.39-4.02,40.98-5.31,23.51-26.7,37.93-50.72,33.27-1.09-.21-2.32.01-2.63-1.48,18.1-.81,36.02-14.46,37.53-33.36,1.97-24.73-7.83-40.95,5.84-66.16,23.12-42.61,71.68-30.21,104.73-56.52,4.79-3.81,9.11-8.14,13.14-12.73-2.36,21.4-16.18,39.58-32.64,52.48-7.19,5.63-15.61,9.8-22.5,15.75-32.81,28.33-34.91,91.15-20.42,129.2,12.03,31.59,52.68,62.27,80.87,79.63,20.03,12.33,40.95,24.05,65.19,15.43l-2.6-1.52-6.4-.72c8.88-.22,17.85-1.64,25.49-6.39-10.02.2-17.32-7.65-25.66-10.33-5.56-1.79-11.33-1.93-17.08-2.41,12.14-10.66,29.49-5.31,42.74.37,12.53-36.45,3.01-73.75-25.48-99.38-2.18-1.96-12.37-10.41-14.29-11.25-.57-.25-1.03-.58-1.69-.28-21.57,17.2-54.33,13.07-64.28-14.71l1.11-.37c3.48,5.45,9.75,9.76,15.74,12.02,1.86.7,9.05,2.98,10.52,2.98h10.88c.17-1.06-1.32-1.1-2.08-1.29-4.3-1.05-8.28-1.63-12.56-3.2-1.14-.42-3.76-1.04-4.11-2.26,3.75-.27,7.93.37,11.62,0ZM224.13,107c7.85-1.11,15.62-3.31,23.59-3.78,24.1-1.4,46.33,7.29,69.77,5.27,15.69-1.35,34.47-12.14,37.88-28.49-8.21,12.46-23.26,19.07-37.88,20.24-25.35,2.03-50.08-11.81-75-1.5l-18.36,8.25ZM218.88,140.76c-22.85,1.75-51.92,9.43-64.79,30.07-.58.93-1.46,1.65-1.2,2.92,11.65-13.14,27.54-20.41,43.85-26.26l22.14-6.73Z"/>
      <path class="cls-4" d="M296.88,566.75c2.35-2.15,4.57-5.9,6.72-7.9,12.93-12,24.35-10.61,40.54-14.21,205.58-45.71,286.8-289.19,138.38-443.65C363.22-23.15,162.87-6.12,65.27,134.52c-109.06,157.16-23.7,360.8,157.2,407.27,19.72,5.07,33.67,3.7,50.01,17.49.8.67,7.81,6.94,7.15,7.47-5.53-1.44-11.28-.34-16.91-.71-59.02-3.85-127.49-34.61-170.99-74.26C-71.81,342.69-5.3,80.4,201.23,13.98c209.88-67.5,415.31,120.07,366.79,335.29-28.04,124.35-144.08,215.41-271.13,217.48Z"/>
      <path class="cls-1" d="M290.89,543.5l20.86-41.75c6.61-12.14,13.39-22.2,25.86-28.89,5.06-2.71,11.15-4.35,16.3-6.98l1.46.75c-1.78,8.24-4.04,16.55-8.4,23.84-8.03,13.45-24.04,21.6-35.49,31.99-8.23,7.47-15.67,15.7-20.99,25.52-2.75-4.95-5.78-10-9.42-14.39-17.22-20.79-44.35-28.62-52.84-56.84-1.11-3.7-1.34-7.61-2.62-11.25,12.34,3.68,24.17,9.6,32.98,19.14,13.37,17.99,21.79,39.13,32.28,58.85ZM251.88,494.75l-1.48-2.63-9.01-6.36c-1.35,1.34,9.74,9.76,10.49,8.99ZM329.88,494c2.03.55,10.9-7.07,9.74-8.24-3.72,2.05-7.25,4.77-9.74,8.24Z"/>
      <path class="cls-2" d="M320.13,395.75c-.54.49-8.37-5.02-9.54-5.83-18.07-12.37-56.94-42.97-66.49-61.76-17.47-34.38-4.27-79.09,11.54-111.65,1.41-.15.61,1.57.52,2.4-2.93,29.37-8.01,67.18,1.71,95.49,11.19,32.62,44.53,52.61,62.26,81.36Z"/>
      <path class="cls-4" d="M268.12,533.27c8.97,9.21,16.29,20.97,16.39,34.23-17.2-24.42-42.72-41.04-68.61-55.14-9.16-4.99-29.31-15.61-38.74-18.05-.41-.11-8.97-8.04-8.97-8.04-4.34-1.87-4.66-2.13-12.66-5.29,0,0,3.5.17,9.52,1.98,33.23,16.32,76.56,23.06,103.08,50.3Z"/>
      <path class="cls-1" d="M291.62,533.01c-1.92.3-1.17-.17-1.56-1.05-10.85-24.04-19.18-49.21-9.89-75.29,2.48-6.96,6.92-13,9.97-19.66,16.01,19.5,19.08,45.27,11.78,69.16-2.8,9.17-8.03,17.54-10.3,26.84ZM290.87,483.5c1.28-7.9,1.47-14.58,0-22.5-2.61,1.75-1.15,6.57-2.31,9.38l2.31,13.12Z"/>
      <path class="cls-4" d="M399.25,494c-17.53,6.69-34.28,15.79-50.37,25.38-20.09,11.97-40.29,25.3-54.24,44.38,8.79-27.94,32.92-44.91,58.22-56.89,16.24-7.69,57.68-26.13,74.11-26.39,9.79-.16-27.72,13.53-27.72,13.53Z"/>
      <path d="M321.62,132.51c1,4.61,5.41,4.7,8.45,6.18,1.03.5,1.55.78,1.31,2.06-6.38,2.63-10.6-1.72-11.26-7.86l1.5-.38Z"/>
      <path class="cls-5" d="M224.13,107l18.36-8.25c24.92-10.31,49.65,3.53,75,1.5,14.62-1.17,29.67-7.77,37.88-20.24-3.41,16.34-22.19,27.14-37.88,28.49-23.44,2.01-45.67-6.68-69.77-5.27-7.97.46-15.73,2.67-23.59,3.78Z"/>
      <path class="cls-5" d="M218.88,140.76l-22.14,6.73c-16.32,5.85-32.2,13.13-43.85,26.26-.26-1.27.62-1.99,1.2-2.92,12.87-20.64,41.94-28.32,64.79-30.07Z"/>
      <path class="cls-5" d="M251.88,494.75c-.75.77-11.84-7.65-10.49-8.99l9.01,6.36,1.48,2.63Z"/>
      <path class="cls-5" d="M329.88,494c2.49-3.47,6.02-6.19,9.74-8.24,1.16,1.17-7.71,8.79-9.74,8.24Z"/>
      <path class="cls-5" d="M490.37,165.5l-5.97-6.4-9.01-12.35c6.58,4.62,12.21,11.14,14.99,18.75Z"/>
      <path class="cls-5" d="M101.88,146.01l-17.24,21.74c2.13-6.31,6.72-13.14,11.51-17.74.65-.62,5.18-4.52,5.74-4.01Z"/>
      <path class="cls-5" d="M290.87,483.5l-2.31-13.12c1.16-2.81-.3-7.63,2.31-9.38,1.47,7.91,1.28,14.6,0,22.5Z"/>
      <path class="cls-5" d="M48.62,339.5c-4.94-4.45-9.04-10.92-11.24-17.25,4.27,5.28,9.18,10.62,11.24,17.25Z"/>
      <path class="cls-5" d="M526.39,341l3.14-6.98,8.1-11.02c-1.65,6.58-6.2,13.6-11.24,18Z"/>
      <path class="cls-5" d="M50.87,224c-1.5-.76-2.14-3.84-2.51-5.36-.86-3.52-1.35-7.5-1.23-11.14l1.88,5.99,1.86,10.51Z"/>
      <path class="cls-5" d="M527.12,222.5l-.65-2.52,2.15-10.97c.25,4.7.03,9.03-1.5,13.49Z"/>
      <path class="cls-5" d="M495.62,244.25l-13.49-11.99c3.01-.79,14.8,10.58,13.49,11.99Z"/>
      <path class="cls-5" d="M93.63,232.26l-10.48,10.67-2.26,1.32c-1.25-1.3,9.66-12.97,12.74-11.99Z"/>
      <path class="cls-5" d="M105.63,446.75c-10.49-2.42-21.19-6.96-28.5-14.99l28.5,14.99Z"/>
      <path class="cls-5" d="M497.88,431.76l-4.14,4.48c-7.53,5.27-16.13,9.2-25.1,11.26l29.24-15.74Z"/>
      <g>
        <path class="cls-3" d="M461.88,130.25c19.55,5.61,37.06,21.64,41.9,41.72,2.95,12.23.37,22.66-1.41,34.77l-6.7-4.17c-15.5-10.65-33.8-32.72-33.8-52.45v-19.88ZM490.37,165.5c-2.78-7.61-8.41-14.13-14.99-18.75l9.01,12.35,5.97,6.4Z"/>
        <path class="cls-3" d="M547.37,284.01c6.87,27.17-1.24,57.52-24.05,74.56l-14.19,9.43c1.36-17.47,3.11-34.41,10.71-50.4,5.32-11.19,13.85-19.92,21.91-29.09l5.61-4.5ZM526.39,341c5.03-4.4,9.59-11.41,11.24-18l-8.1,11.02-3.14,6.98Z"/>
        <path class="cls-3" d="M516.62,261.5c-1.98.2-1.21.03-1.47-1.11-4.8-20.69-8.64-41.92-2.79-62.79,2.26-8.06,6.63-15.46,9.91-23.09,12.03,19.75,16.18,42.51,7.49,64.48-3.25,8.21-8.77,14.95-13.13,22.51ZM527.12,222.5c1.53-4.46,1.75-8.79,1.5-13.49l-2.15,10.97.65,2.52Z"/>
        <path class="cls-3" d="M462.64,206.76c26.44,3.55,42.75,21.72,44.28,48.34.09,1.55.43,9.4-1.16,9.39-6.69-5.76-15.09-10.04-21.73-15.76-12.23-10.53-19.56-25.99-21.39-41.97ZM495.62,244.25c1.31-1.41-10.48-12.79-13.49-11.99l13.49,11.99Z"/>
        <path class="cls-3" d="M509.87,320c-1.3.33-1.5-.54-2.25-1.12-2.22-1.71-5.92-5.67-7.88-7.87-11.8-13.22-18.99-29.81-22.11-47.26,30.91.61,42.48,29.74,32.24,56.24Z"/>
        <path class="cls-3" d="M515.88,414.51c-3.74,12.17-12.72,26.2-23.77,32.85-12.49,7.51-23.98,4.38-37.73,3.89,15.36-20.22,35.89-33.69,61.5-36.74ZM497.88,431.76l-29.24,15.74c8.98-2.05,17.58-5.99,25.1-11.26l4.14-4.48Z"/>
        <path class="cls-3" d="M500.12,368.01c-1.75.48-1.26-.47-1.71-.96-14.43-16.12-19.63-28.92-16.94-51.07.12-1.01.83-5.72,1.78-5.7,19.15,13.25,22.27,36.35,16.87,57.74Z"/>
        <path class="cls-3" d="M480.62,407.75c-1.8,1.38-7.04-17.8-7.3-19.32-2.16-12.68-.38-23.61,4.32-35.43,1.24-.28,1.52.41,2.23,1.14,4.39,4.47,9.87,14.73,10.5,21,1.31,13.06-4.02,21.65-9.75,32.62Z"/>
        <path class="cls-3" d="M448.39,444.5c-2.8-18.82.03-39.37,15.73-51.75,8.83,19.87,2.38,40.31-15.73,51.75Z"/>
        <path class="cls-3" d="M437.88,423.5v16.88c0,.69-2.15,6.65-2.64,7.86-3.53,8.75-10.95,16.35-19.86,19.51-4.36-19.27,5.16-36.06,22.5-44.25Z"/>
        <path class="cls-3" d="M525.63,369.51c-4.79,19.07-19.03,34.61-37.5,41.24,4.71-11.72,8.99-26.25,20-33.62,1.76-1.18,16.82-8.29,17.5-7.62Z"/>
        <path class="cls-3" d="M478.38,462.51c.33,1.38-.47,1.45-1.24,2.12-14.19,12.24-33.99,13.86-51.25,7.61,1.14-1.39,3.31-2.76,4.85-3.76,15.02-9.77,30.5-11.37,47.64-5.97Z"/>
        <path class="cls-3" d="M357.63,526.25c11.34-14.36,30.34-20.71,48.28-17.91l4.6,1.41c-7.92,7.49-24.32,16.5-35.26,16.5h-17.62Z"/>
        <g>
          <path class="cls-3" d="M181.38,499.25c-20.18,1.89-41.57,2.32-56.99-12.74,13.17-5.41,22.09-7.28,33.04-5.39,16.85,2.1,23.96,18.13,23.96,18.13Z"/>
          <path class="cls-3" d="M113.88,152.38c-2.22,21.88-17.08,38.49-34.26,50.49-.85.59-4.93,3.64-5.48,3.14-1.74-8.19-3.61-16.66-2.99-25.11,1.67-23.04,19.79-43.14,41.18-50.34l1.55.83c-.5,6.76.67,14.37,0,21ZM101.88,146.01c-.55-.52-5.09,3.38-5.74,4.01-4.78,4.6-9.37,11.42-11.51,17.74l17.24-21.74Z"/>
          <path class="cls-3" d="M67.37,368.75c-5.71-5.04-12.67-8.44-18.39-13.48-20.91-18.45-26.23-45.22-21.35-72.02,1.3-.34,1.5.54,2.25,1.12,5.09,3.91,14.31,14.61,18.31,19.94,13.69,18.29,18.23,41.97,19.18,64.43ZM48.62,339.5c-2.05-6.63-6.97-11.97-11.24-17.25,2.19,6.33,6.3,12.8,11.24,17.25Z"/>
          <path class="cls-3" d="M59.89,261.5c-1.08-3.81-4.57-6.66-6.78-10.1-10.19-15.87-13.59-31.91-10.13-50.67,1.76-9.54,5.94-17.66,10.16-26.22,12.51,18.27,15.62,41.46,12.64,63.27-.78,5.72-2.78,16.43-4.47,21.78-.26.84-.26,1.81-1.42,1.94ZM50.87,224l-1.86-10.51-1.88-5.99c-.13,3.64.37,7.61,1.23,11.14.37,1.51,1.01,4.6,2.51,5.36Z"/>
          <path class="cls-3" d="M69.63,249.88c.71-7.02,5.81-18.79,9.88-24.62,7.77-11.15,21.22-16.82,34.38-18.12-2.97,12.55-5.97,23.59-14.28,33.72-8.41,10.24-19.73,16.26-29.98,24.4.36-4.95-.49-10.51,0-15.38ZM93.63,232.26c-3.08-.98-13.99,10.69-12.74,11.99l2.26-1.32,10.48-10.67Z"/>
          <path class="cls-3" d="M66.63,320c-.2-4.34-2.48-8.97-2.93-13.2-2.64-25,10.78-40.57,35.16-43.8-2.71,16.8-8.68,32.8-19.86,45.76-2.31,2.68-7.44,8.05-10.13,10.12-.75.58-.95,1.45-2.25,1.12Z"/>
          <path class="cls-3" d="M120.63,451.25c-9.89.1-20.16,2.28-29.83-.54-15.13-4.4-26.25-22.04-30.91-36.2,17.8,2.3,34.72,9.16,48.01,21.36,1.5,1.38,14.18,14.06,12.74,15.38ZM105.63,446.75l-28.5-14.99c7.31,8.03,18.01,12.56,28.5,14.99Z"/>
          <path class="cls-3" d="M94.38,310.26c3.85,21.32.44,37.21-13.51,53.6l-4.48,4.14c-4.57-16.01-3.85-34.76,6.76-48.36.87-1.11,10.19-10.65,11.23-9.39Z"/>
          <path class="cls-3" d="M98.87,353.01c8.52,18.07,7.87,38.04-1.86,55.48-7.03-9.62-11.12-20.55-10.15-32.64.68-8.55,5.65-15.09,10.36-21.87.45-.65-.13-1.4,1.66-.98Z"/>
          <path class="cls-3" d="M128.12,444.5c-18.33-10.91-24.57-31.45-15.73-51,1.91-1.38,9.62,10.4,10.62,12.24,6.83,12.59,5.81,24.94,5.11,38.75Z"/>
          <path class="cls-3" d="M160.38,467.76c-17.47-6.4-25.28-26.83-21.74-44.25,17.09,8.44,26.09,25.17,21.74,44.25Z"/>
          <path class="cls-3" d="M88.37,411.5c-17.99-8.44-32.86-21.98-37.49-42,8.94,3.31,18.02,5.97,24.38,13.49,6.65,7.86,9.74,18.98,13.11,28.51Z"/>
          <path class="cls-3" d="M149.87,470.77c.24,1.57.08,1.21-.94,1.66-13.17,5.86-30.61,4.07-42.8-3.31-1.13-.69-8.18-5.37-7.25-6.61,18.29-6.1,35.52-2.71,50.99,8.26Z"/>
          <path class="cls-3" d="M219.38,524.25c.28.32,1.11,1.92,1,2-19.27.87-39.17-1.66-52.48-16.87.71-1.08,1.43-1.05,2.57-1.16,17.57-1.83,36.71,2.32,48.91,16.03Z"/>
          <path class="cls-3" d="M54.63,288.88l-1.5.76c-9.68-9.22-14.43-16.96-13.53-30.79.21-3.17.72-8.7,3.02-10.84,2.41,6.04,7.15,11.8,9.65,17.73.62,1.46,2.36,6.18,2.36,7.39v15.75Z"/>
        </g>
        <path class="cls-3" d="M521.89,289.25c-4.22-16.39,3.62-28.06,11.61-41.25,6.96,15.27.12,30.72-11.61,41.25Z"/>
        <path class="cls-3" d="M454.38,485.76c.41,1.8-.33,1.21-.98,1.66-10.44,7.25-22.45,12.7-35.36,13.36-7.9.4-16.47-1.45-24.41-1.54l5.62-5.25c6.36-4.38,11.29-13.26,27.72-13.53,9.79-.16,18.21,2.74,27.41,5.29Z"/>
      </g>
    </g>
  </g>
</svg>